<svg width="480" height="81" viewBox="0 0 480 81" fill="none" xmlns="http://www.w3.org/2000/svg">
<rect x="154" width="326" height="81" rx="6" fill="#25C050"/>
<path d="M20.2175 57C19.8975 57 19.6415 56.904 19.4495 56.712C19.2575 56.488 19.1615 56.216 19.1615 55.896V24.552C19.1615 24.2 19.2575 23.928 19.4495 23.736C19.6415 23.512 19.8975 23.4 20.2175 23.4H31.9295C35.5775 23.4 38.4255 24.264 40.4735 25.992C42.5535 27.688 43.5935 30.168 43.5935 33.432C43.5935 35.864 42.9855 37.864 41.7695 39.432C40.5535 41 38.8575 42.088 36.6815 42.696L44.0735 55.512C44.1695 55.704 44.2175 55.88 44.2175 56.04C44.2175 56.296 44.1215 56.52 43.9295 56.712C43.7375 56.904 43.5135 57 43.2575 57H41.1455C40.6655 57 40.2815 56.888 39.9935 56.664C39.7375 56.44 39.4975 56.12 39.2735 55.704L32.2175 43.416H23.6735V55.896C23.6735 56.216 23.5615 56.488 23.3375 56.712C23.1135 56.904 22.8415 57 22.5215 57H20.2175ZM31.7375 39.48C36.5695 39.48 38.9855 37.448 38.9855 33.384C38.9855 29.32 36.5695 27.288 31.7375 27.288H23.6735V39.48H31.7375ZM62.5209 57.48C58.2649 57.48 55.0169 56.328 52.7769 54.024C50.5689 51.688 49.3849 48.504 49.2249 44.472C49.1929 43.608 49.1769 42.2 49.1769 40.248C49.1769 38.264 49.1929 36.824 49.2249 35.928C49.3849 31.896 50.5689 28.728 52.7769 26.424C55.0169 24.088 58.2649 22.92 62.5209 22.92C65.3689 22.92 67.7849 23.432 69.7689 24.456C71.7529 25.448 73.2409 26.76 74.2329 28.392C75.2569 30.024 75.8169 31.768 75.9129 33.624C75.9129 33.912 75.8009 34.152 75.5769 34.344C75.3849 34.504 75.1449 34.584 74.8569 34.584H72.4569C72.1369 34.584 71.8809 34.504 71.6889 34.344C71.4969 34.184 71.3529 33.912 71.2569 33.528C70.7129 31.064 69.7209 29.336 68.2809 28.344C66.8729 27.352 64.9529 26.856 62.5209 26.856C56.9529 26.856 54.0569 29.96 53.8329 36.168C53.8009 37.032 53.7849 38.36 53.7849 40.152C53.7849 41.944 53.8009 43.304 53.8329 44.232C54.0569 50.408 56.9529 53.496 62.5209 53.496C64.9209 53.496 66.8409 53 68.2809 52.008C69.7209 51.016 70.7129 49.304 71.2569 46.872C71.3529 46.488 71.4969 46.216 71.6889 46.056C71.8809 45.896 72.1369 45.816 72.4569 45.816H74.8569C75.1449 45.816 75.3849 45.912 75.5769 46.104C75.8009 46.264 75.9129 46.488 75.9129 46.776C75.8169 48.632 75.2569 50.376 74.2329 52.008C73.2409 53.64 71.7529 54.968 69.7689 55.992C67.7849 56.984 65.3689 57.48 62.5209 57.48ZM92.3788 57.48C88.8908 57.48 85.9948 56.632 83.6908 54.936C81.4188 53.208 80.2188 50.68 80.0908 47.352C80.0908 47.064 80.1868 46.824 80.3788 46.632C80.5708 46.408 80.8108 46.296 81.0988 46.296H83.5468C84.2508 46.296 84.6508 46.664 84.7468 47.4C84.9388 49.48 85.7388 51.016 87.1468 52.008C88.5548 53 90.3148 53.496 92.4268 53.496C94.8588 53.496 96.7308 52.696 98.0428 51.096C99.3868 49.496 100.059 47.336 100.059 44.616V27.432H82.9228C82.6028 27.432 82.3308 27.336 82.1068 27.144C81.9148 26.92 81.8188 26.648 81.8188 26.328V24.504C81.8188 24.184 81.9148 23.928 82.1068 23.736C82.3308 23.512 82.6028 23.4 82.9228 23.4H103.515C103.867 23.4 104.139 23.512 104.331 23.736C104.555 23.928 104.667 24.2 104.667 24.552V44.712C104.667 47.272 104.171 49.512 103.179 51.432C102.219 53.352 100.811 54.84 98.9548 55.896C97.0988 56.952 94.9068 57.48 92.3788 57.48ZM109.858 57C109.602 57 109.378 56.904 109.186 56.712C108.994 56.52 108.898 56.296 108.898 56.04L108.994 55.512L120.898 24.456C121.154 23.752 121.666 23.4 122.434 23.4H125.506C126.274 23.4 126.786 23.752 127.042 24.456L138.946 55.512L139.042 56.04C139.042 56.296 138.93 56.52 138.706 56.712C138.514 56.904 138.29 57 138.034 57H135.778C135.458 57 135.186 56.92 134.962 56.76C134.77 56.568 134.642 56.376 134.578 56.184L131.89 49.272H116.002L113.362 56.184C113.106 56.728 112.706 57 112.162 57H109.858ZM117.394 45.288H130.546L123.97 28.056L117.394 45.288Z" fill="white"/>
<path d="M189.984 57.48C186.88 57.48 184.24 57.032 182.064 56.136C179.888 55.24 178.24 54.056 177.12 52.584C176 51.112 175.408 49.512 175.344 47.784C175.344 47.496 175.44 47.256 175.632 47.064C175.856 46.872 176.112 46.776 176.4 46.776H182.784C183.168 46.776 183.472 46.84 183.696 46.968C183.952 47.096 184.224 47.32 184.512 47.64C184.928 48.408 185.568 49.048 186.432 49.56C187.328 50.04 188.512 50.28 189.984 50.28C191.712 50.28 193.04 50.024 193.968 49.512C194.896 48.968 195.36 48.232 195.36 47.304C195.36 46.632 195.12 46.088 194.64 45.672C194.16 45.224 193.392 44.84 192.336 44.52C191.28 44.168 189.76 43.784 187.776 43.368C183.904 42.6 181.008 41.432 179.088 39.864C177.168 38.296 176.208 36.056 176.208 33.144C176.208 31.16 176.752 29.4 177.84 27.864C178.96 26.296 180.528 25.08 182.544 24.216C184.592 23.352 186.96 22.92 189.648 22.92C192.464 22.92 194.896 23.416 196.944 24.408C199.024 25.368 200.608 26.584 201.696 28.056C202.816 29.496 203.408 30.92 203.472 32.328C203.472 32.616 203.376 32.872 203.184 33.096C202.992 33.288 202.752 33.384 202.464 33.384H195.744C195.04 33.384 194.496 33.096 194.112 32.52C193.92 31.848 193.424 31.288 192.624 30.84C191.824 30.36 190.832 30.12 189.648 30.12C188.304 30.12 187.264 30.36 186.528 30.84C185.792 31.32 185.424 32.024 185.424 32.952C185.424 33.88 185.904 34.616 186.864 35.16C187.824 35.672 189.616 36.2 192.24 36.744C195.248 37.288 197.632 37.976 199.392 38.808C201.184 39.608 202.496 40.664 203.328 41.976C204.192 43.256 204.624 44.888 204.624 46.872C204.624 49.048 204 50.936 202.752 52.536C201.504 54.136 199.776 55.368 197.568 56.232C195.36 57.064 192.832 57.48 189.984 57.48ZM223.153 57.48C218.609 57.48 215.025 56.376 212.401 54.168C209.777 51.96 208.385 48.712 208.225 44.424C208.193 43.528 208.177 42.152 208.177 40.296C208.177 38.44 208.193 37.048 208.225 36.12C208.353 31.896 209.745 28.648 212.401 26.376C215.089 24.072 218.673 22.92 223.153 22.92C227.601 22.92 231.153 24.072 233.809 26.376C236.497 28.648 237.905 31.896 238.033 36.12C238.097 37.976 238.129 39.368 238.129 40.296C238.129 41.256 238.097 42.632 238.033 44.424C237.873 48.712 236.481 51.96 233.857 54.168C231.265 56.376 227.697 57.48 223.153 57.48ZM223.153 50.28C224.817 50.28 226.145 49.784 227.137 48.792C228.129 47.768 228.657 46.216 228.721 44.136C228.785 42.28 228.817 40.952 228.817 40.152C228.817 39.352 228.785 38.056 228.721 36.264C228.657 34.184 228.129 32.648 227.137 31.656C226.145 30.632 224.817 30.12 223.153 30.12C221.457 30.12 220.113 30.632 219.121 31.656C218.129 32.648 217.601 34.184 217.537 36.264C217.505 37.16 217.489 38.456 217.489 40.152C217.489 41.88 217.505 43.208 217.537 44.136C217.601 46.216 218.129 47.768 219.121 48.792C220.113 49.784 221.457 50.28 223.153 50.28ZM257.465 57.48C252.889 57.48 249.289 56.376 246.665 54.168C244.073 51.96 242.697 48.728 242.537 44.472C242.505 43.608 242.489 42.2 242.489 40.248C242.489 38.264 242.505 36.824 242.537 35.928C242.697 31.768 244.089 28.568 246.713 26.328C249.369 24.056 252.953 22.92 257.465 22.92C260.313 22.92 262.857 23.384 265.097 24.312C267.369 25.24 269.161 26.584 270.473 28.344C271.785 30.104 272.473 32.184 272.537 34.584C272.537 34.872 272.425 35.112 272.201 35.304C272.009 35.496 271.769 35.592 271.481 35.592H264.665C264.217 35.592 263.881 35.512 263.657 35.352C263.465 35.16 263.289 34.824 263.129 34.344C262.681 32.776 261.993 31.688 261.065 31.08C260.169 30.44 258.969 30.12 257.465 30.12C253.849 30.12 251.977 32.136 251.849 36.168C251.817 37.032 251.801 38.36 251.801 40.152C251.801 41.944 251.817 43.304 251.849 44.232C251.977 48.264 253.849 50.28 257.465 50.28C258.937 50.28 260.137 49.96 261.065 49.32C262.025 48.68 262.713 47.592 263.129 46.056C263.257 45.576 263.433 45.256 263.657 45.096C263.881 44.904 264.217 44.808 264.665 44.808H271.481C271.769 44.808 272.009 44.904 272.201 45.096C272.425 45.288 272.537 45.528 272.537 45.816C272.473 48.216 271.785 50.296 270.473 52.056C269.161 53.816 267.369 55.16 265.097 56.088C262.857 57.016 260.313 57.48 257.465 57.48ZM291.356 57.48C286.78 57.48 283.18 56.376 280.556 54.168C277.964 51.96 276.588 48.728 276.428 44.472C276.396 43.608 276.38 42.2 276.38 40.248C276.38 38.264 276.396 36.824 276.428 35.928C276.588 31.768 277.98 28.568 280.604 26.328C283.26 24.056 286.844 22.92 291.356 22.92C294.204 22.92 296.748 23.384 298.988 24.312C301.26 25.24 303.052 26.584 304.364 28.344C305.676 30.104 306.364 32.184 306.428 34.584C306.428 34.872 306.316 35.112 306.092 35.304C305.9 35.496 305.66 35.592 305.372 35.592H298.556C298.108 35.592 297.772 35.512 297.548 35.352C297.356 35.16 297.18 34.824 297.02 34.344C296.572 32.776 295.884 31.688 294.956 31.08C294.06 30.44 292.86 30.12 291.356 30.12C287.74 30.12 285.868 32.136 285.74 36.168C285.708 37.032 285.692 38.36 285.692 40.152C285.692 41.944 285.708 43.304 285.74 44.232C285.868 48.264 287.74 50.28 291.356 50.28C292.828 50.28 294.028 49.96 294.956 49.32C295.916 48.68 296.604 47.592 297.02 46.056C297.148 45.576 297.324 45.256 297.548 45.096C297.772 44.904 298.108 44.808 298.556 44.808H305.372C305.66 44.808 305.9 44.904 306.092 45.096C306.316 45.288 306.428 45.528 306.428 45.816C306.364 48.216 305.676 50.296 304.364 52.056C303.052 53.816 301.26 55.16 298.988 56.088C296.748 57.016 294.204 57.48 291.356 57.48ZM312.527 57C312.207 57 311.919 56.888 311.663 56.664C311.439 56.408 311.327 56.12 311.327 55.8V24.648C311.327 24.296 311.439 24.008 311.663 23.784C311.887 23.528 312.175 23.4 312.527 23.4H335.182C335.535 23.4 335.823 23.528 336.047 23.784C336.303 24.008 336.431 24.296 336.431 24.648V29.4C336.431 29.752 336.303 30.04 336.047 30.264C335.823 30.488 335.535 30.6 335.182 30.6H320.015V36.696H334.127C334.479 36.696 334.767 36.824 334.991 37.08C335.247 37.304 335.375 37.592 335.375 37.944V42.312C335.375 42.664 335.247 42.968 334.991 43.224C334.767 43.448 334.479 43.56 334.127 43.56H320.015V49.8H335.567C335.919 49.8 336.207 49.928 336.431 50.184C336.687 50.408 336.815 50.696 336.815 51.048V55.8C336.815 56.152 336.687 56.44 336.431 56.664C336.207 56.888 335.919 57 335.567 57H312.527ZM343.323 57C343.003 57 342.715 56.888 342.459 56.664C342.235 56.408 342.123 56.12 342.123 55.8V24.648C342.123 24.296 342.235 24.008 342.459 23.784C342.683 23.528 342.971 23.4 343.323 23.4H356.523C360.747 23.4 364.043 24.36 366.411 26.28C368.811 28.2 370.011 30.904 370.011 34.392C370.011 36.632 369.483 38.536 368.427 40.104C367.403 41.672 365.979 42.888 364.155 43.752L370.635 55.464C370.731 55.656 370.779 55.832 370.779 55.992C370.779 56.248 370.683 56.488 370.491 56.712C370.299 56.904 370.059 57 369.771 57H363.003C362.075 57 361.419 56.568 361.035 55.704L355.755 45.288H351.147V55.8C351.147 56.152 351.019 56.44 350.763 56.664C350.539 56.888 350.251 57 349.899 57H343.323ZM356.475 38.232C357.851 38.232 358.891 37.896 359.595 37.224C360.331 36.52 360.699 35.56 360.699 34.344C360.699 33.128 360.331 32.152 359.595 31.416C358.891 30.68 357.851 30.312 356.475 30.312H351.147V38.232H356.475ZM388.218 57.48C385.114 57.48 382.474 57.032 380.298 56.136C378.122 55.24 376.474 54.056 375.354 52.584C374.234 51.112 373.642 49.512 373.578 47.784C373.578 47.496 373.674 47.256 373.866 47.064C374.09 46.872 374.346 46.776 374.634 46.776H381.018C381.402 46.776 381.706 46.84 381.93 46.968C382.186 47.096 382.458 47.32 382.746 47.64C383.162 48.408 383.802 49.048 384.666 49.56C385.562 50.04 386.746 50.28 388.218 50.28C389.946 50.28 391.274 50.024 392.202 49.512C393.13 48.968 393.594 48.232 393.594 47.304C393.594 46.632 393.354 46.088 392.874 45.672C392.394 45.224 391.626 44.84 390.57 44.52C389.514 44.168 387.994 43.784 386.01 43.368C382.138 42.6 379.242 41.432 377.322 39.864C375.402 38.296 374.442 36.056 374.442 33.144C374.442 31.16 374.986 29.4 376.074 27.864C377.194 26.296 378.762 25.08 380.778 24.216C382.826 23.352 385.194 22.92 387.882 22.92C390.698 22.92 393.13 23.416 395.178 24.408C397.258 25.368 398.842 26.584 399.93 28.056C401.05 29.496 401.642 30.92 401.706 32.328C401.706 32.616 401.61 32.872 401.418 33.096C401.226 33.288 400.986 33.384 400.698 33.384H393.978C393.274 33.384 392.73 33.096 392.346 32.52C392.154 31.848 391.658 31.288 390.858 30.84C390.058 30.36 389.066 30.12 387.882 30.12C386.538 30.12 385.498 30.36 384.762 30.84C384.026 31.32 383.658 32.024 383.658 32.952C383.658 33.88 384.138 34.616 385.098 35.16C386.058 35.672 387.85 36.2 390.474 36.744C393.482 37.288 395.866 37.976 397.626 38.808C399.418 39.608 400.73 40.664 401.562 41.976C402.426 43.256 402.858 44.888 402.858 46.872C402.858 49.048 402.234 50.936 400.986 52.536C399.738 54.136 398.01 55.368 395.802 56.232C393.594 57.064 391.066 57.48 388.218 57.48ZM408.667 57C408.347 57 408.059 56.888 407.803 56.664C407.579 56.408 407.467 56.12 407.467 55.8V24.6C407.467 24.248 407.579 23.96 407.803 23.736C408.059 23.512 408.347 23.4 408.667 23.4H415.531C415.883 23.4 416.171 23.512 416.395 23.736C416.619 23.96 416.731 24.248 416.731 24.6V55.8C416.731 56.12 416.619 56.408 416.395 56.664C416.171 56.888 415.883 57 415.531 57H408.667ZM424.512 57C424.16 57 423.856 56.888 423.6 56.664C423.376 56.44 423.264 56.152 423.264 55.8V24.648C423.264 24.296 423.376 24.008 423.6 23.784C423.856 23.528 424.16 23.4 424.512 23.4H429.936C430.736 23.4 431.312 23.752 431.664 24.456L439.92 39.24L448.224 24.456C448.576 23.752 449.152 23.4 449.952 23.4H455.376C455.728 23.4 456.016 23.528 456.24 23.784C456.496 24.008 456.624 24.296 456.624 24.648V55.8C456.624 56.152 456.496 56.44 456.24 56.664C456.016 56.888 455.728 57 455.376 57H449.28C448.96 57 448.672 56.888 448.416 56.664C448.192 56.408 448.08 56.12 448.08 55.8V38.328L442.896 47.832C442.48 48.568 441.92 48.936 441.216 48.936H438.624C437.984 48.936 437.424 48.568 436.944 47.832L431.808 38.328V55.8C431.808 56.152 431.68 56.44 431.424 56.664C431.2 56.888 430.912 57 430.56 57H424.512Z" fill="white"/>
</svg>
