<svg width="535" height="81" viewBox="0 0 535 81" fill="none" xmlns="http://www.w3.org/2000/svg">
<rect x="209" width="326" height="81" rx="6" fill="#25C050"/>
<path d="M5.79563 57C5.47563 57 5.21963 56.904 5.02763 56.712C4.83563 56.488 4.73963 56.216 4.73963 55.896V24.552C4.73963 24.2 4.83563 23.928 5.02763 23.736C5.21963 23.512 5.47563 23.4 5.79563 23.4H17.5076C21.1556 23.4 24.0036 24.264 26.0516 25.992C28.1316 27.688 29.1716 30.168 29.1716 33.432C29.1716 35.864 28.5636 37.864 27.3476 39.432C26.1316 41 24.4356 42.088 22.2596 42.696L29.6516 55.512C29.7476 55.704 29.7956 55.88 29.7956 56.04C29.7956 56.296 29.6996 56.52 29.5076 56.712C29.3156 56.904 29.0916 57 28.8356 57H26.7236C26.2436 57 25.8596 56.888 25.5716 56.664C25.3156 56.44 25.0756 56.12 24.8516 55.704L17.7956 43.416H9.25163V55.896C9.25163 56.216 9.13963 56.488 8.91563 56.712C8.69163 56.904 8.41963 57 8.09963 57H5.79563ZM17.3156 39.48C22.1476 39.48 24.5636 37.448 24.5636 33.384C24.5636 29.32 22.1476 27.288 17.3156 27.288H9.25163V39.48H17.3156ZM48.099 57.48C43.843 57.48 40.595 56.328 38.355 54.024C36.147 51.688 34.963 48.504 34.803 44.472C34.771 43.608 34.755 42.2 34.755 40.248C34.755 38.264 34.771 36.824 34.803 35.928C34.963 31.896 36.147 28.728 38.355 26.424C40.595 24.088 43.843 22.92 48.099 22.92C50.947 22.92 53.363 23.432 55.347 24.456C57.331 25.448 58.819 26.76 59.811 28.392C60.835 30.024 61.395 31.768 61.491 33.624C61.491 33.912 61.379 34.152 61.155 34.344C60.963 34.504 60.723 34.584 60.435 34.584H58.035C57.715 34.584 57.459 34.504 57.267 34.344C57.075 34.184 56.931 33.912 56.835 33.528C56.291 31.064 55.299 29.336 53.859 28.344C52.451 27.352 50.531 26.856 48.099 26.856C42.531 26.856 39.635 29.96 39.411 36.168C39.379 37.032 39.363 38.36 39.363 40.152C39.363 41.944 39.379 43.304 39.411 44.232C39.635 50.408 42.531 53.496 48.099 53.496C50.499 53.496 52.419 53 53.859 52.008C55.299 51.016 56.291 49.304 56.835 46.872C56.931 46.488 57.075 46.216 57.267 46.056C57.459 45.896 57.715 45.816 58.035 45.816H60.435C60.723 45.816 60.963 45.912 61.155 46.104C61.379 46.264 61.491 46.488 61.491 46.776C61.395 48.632 60.835 50.376 59.811 52.008C58.819 53.64 57.331 54.968 55.347 55.992C53.363 56.984 50.947 57.48 48.099 57.48ZM77.9569 57.48C74.4689 57.48 71.5729 56.632 69.2689 54.936C66.9969 53.208 65.7969 50.68 65.6689 47.352C65.6689 47.064 65.7649 46.824 65.9569 46.632C66.1489 46.408 66.3889 46.296 66.6769 46.296H69.1249C69.8289 46.296 70.2289 46.664 70.3249 47.4C70.5169 49.48 71.3169 51.016 72.7249 52.008C74.1329 53 75.8929 53.496 78.0049 53.496C80.4369 53.496 82.3089 52.696 83.6209 51.096C84.9649 49.496 85.6369 47.336 85.6369 44.616V27.432H68.5009C68.1809 27.432 67.9089 27.336 67.6849 27.144C67.4929 26.92 67.3969 26.648 67.3969 26.328V24.504C67.3969 24.184 67.4929 23.928 67.6849 23.736C67.9089 23.512 68.1809 23.4 68.5009 23.4H89.0929C89.4449 23.4 89.7169 23.512 89.9089 23.736C90.1329 23.928 90.2449 24.2 90.2449 24.552V44.712C90.2449 47.272 89.7489 49.512 88.7569 51.432C87.7969 53.352 86.3889 54.84 84.5329 55.896C82.6769 56.952 80.4849 57.48 77.9569 57.48ZM99.405 57C99.085 57 98.829 56.904 98.637 56.712C98.445 56.488 98.349 56.216 98.349 55.896V24.552C98.349 24.2 98.445 23.928 98.637 23.736C98.829 23.512 99.085 23.4 99.405 23.4H101.517C101.837 23.4 102.077 23.464 102.237 23.592C102.397 23.72 102.557 23.88 102.717 24.072L118.797 48.84V24.552C118.797 24.2 118.893 23.928 119.085 23.736C119.309 23.512 119.581 23.4 119.901 23.4H122.061C122.413 23.4 122.685 23.512 122.877 23.736C123.101 23.928 123.213 24.2 123.213 24.552V55.848C123.213 56.168 123.101 56.44 122.877 56.664C122.685 56.888 122.429 57 122.109 57H119.949C119.405 57 119.021 56.776 118.797 56.328L102.717 31.8V55.896C102.717 56.216 102.605 56.488 102.381 56.712C102.189 56.904 101.933 57 101.613 57H99.405ZM142.334 57.48C139.71 57.48 137.422 57.064 135.47 56.232C133.55 55.4 132.078 54.312 131.054 52.968C130.062 51.592 129.534 50.12 129.47 48.552C129.47 48.296 129.566 48.072 129.758 47.88C129.95 47.688 130.19 47.592 130.478 47.592H132.83C133.406 47.592 133.806 47.912 134.03 48.552C134.318 49.896 135.134 51.064 136.478 52.056C137.854 53.016 139.806 53.496 142.334 53.496C145.054 53.496 147.086 53.016 148.43 52.056C149.774 51.096 150.446 49.768 150.446 48.072C150.446 46.984 150.11 46.088 149.438 45.384C148.798 44.68 147.822 44.072 146.51 43.56C145.23 43.016 143.294 42.36 140.702 41.592C138.238 40.888 136.27 40.136 134.798 39.336C133.358 38.536 132.27 37.56 131.534 36.408C130.798 35.224 130.43 33.736 130.43 31.944C130.43 30.216 130.894 28.68 131.822 27.336C132.75 25.96 134.094 24.888 135.854 24.12C137.614 23.32 139.694 22.92 142.094 22.92C144.59 22.92 146.718 23.368 148.478 24.264C150.27 25.128 151.63 26.232 152.558 27.576C153.486 28.888 153.982 30.216 154.046 31.56C154.046 31.848 153.95 32.088 153.758 32.28C153.566 32.472 153.326 32.568 153.038 32.568H150.638C150.382 32.568 150.142 32.488 149.918 32.328C149.694 32.168 149.534 31.928 149.438 31.608C149.246 30.232 148.478 29.096 147.134 28.2C145.79 27.304 144.11 26.856 142.094 26.856C139.918 26.856 138.19 27.288 136.91 28.152C135.63 28.984 134.99 30.232 134.99 31.896C134.99 33.016 135.278 33.928 135.854 34.632C136.462 35.336 137.374 35.96 138.59 36.504C139.838 37.048 141.646 37.672 144.014 38.376C146.734 39.144 148.862 39.912 150.398 40.68C151.966 41.448 153.134 42.408 153.902 43.56C154.67 44.68 155.054 46.136 155.054 47.928C155.054 50.936 153.902 53.288 151.598 54.984C149.326 56.648 146.238 57.48 142.334 57.48ZM166.544 57C165.744 57 165.248 56.584 165.056 55.752L158.864 24.888L158.768 24.36C158.768 24.104 158.864 23.88 159.056 23.688C159.248 23.496 159.472 23.4 159.728 23.4H162.08C162.752 23.4 163.136 23.672 163.232 24.216L168.176 49.272L173.504 31.992C173.696 31.224 174.192 30.84 174.992 30.84H176.672C177.44 30.84 177.952 31.224 178.208 31.992L183.488 49.272L188.432 24.216C188.528 23.672 188.928 23.4 189.632 23.4H191.936C192.192 23.4 192.416 23.496 192.608 23.688C192.8 23.88 192.896 24.104 192.896 24.36C192.896 24.552 192.88 24.728 192.848 24.888L186.608 55.752C186.448 56.584 185.952 57 185.12 57H183.392C182.592 57 182.064 56.6 181.808 55.8L175.856 37.32L169.856 55.8C169.632 56.6 169.12 57 168.32 57H166.544Z" fill="white"/>
<path d="M244.984 57.48C241.88 57.48 239.24 57.032 237.064 56.136C234.888 55.24 233.24 54.056 232.12 52.584C231 51.112 230.408 49.512 230.344 47.784C230.344 47.496 230.44 47.256 230.632 47.064C230.856 46.872 231.112 46.776 231.4 46.776H237.784C238.168 46.776 238.472 46.84 238.696 46.968C238.952 47.096 239.224 47.32 239.512 47.64C239.928 48.408 240.568 49.048 241.432 49.56C242.328 50.04 243.512 50.28 244.984 50.28C246.712 50.28 248.04 50.024 248.968 49.512C249.896 48.968 250.36 48.232 250.36 47.304C250.36 46.632 250.12 46.088 249.64 45.672C249.16 45.224 248.392 44.84 247.336 44.52C246.28 44.168 244.76 43.784 242.776 43.368C238.904 42.6 236.008 41.432 234.088 39.864C232.168 38.296 231.208 36.056 231.208 33.144C231.208 31.16 231.752 29.4 232.84 27.864C233.96 26.296 235.528 25.08 237.544 24.216C239.592 23.352 241.96 22.92 244.648 22.92C247.464 22.92 249.896 23.416 251.944 24.408C254.024 25.368 255.608 26.584 256.696 28.056C257.816 29.496 258.408 30.92 258.472 32.328C258.472 32.616 258.376 32.872 258.184 33.096C257.992 33.288 257.752 33.384 257.464 33.384H250.744C250.04 33.384 249.496 33.096 249.112 32.52C248.92 31.848 248.424 31.288 247.624 30.84C246.824 30.36 245.832 30.12 244.648 30.12C243.304 30.12 242.264 30.36 241.528 30.84C240.792 31.32 240.424 32.024 240.424 32.952C240.424 33.88 240.904 34.616 241.864 35.16C242.824 35.672 244.616 36.2 247.24 36.744C250.248 37.288 252.632 37.976 254.392 38.808C256.184 39.608 257.496 40.664 258.328 41.976C259.192 43.256 259.624 44.888 259.624 46.872C259.624 49.048 259 50.936 257.752 52.536C256.504 54.136 254.776 55.368 252.568 56.232C250.36 57.064 247.832 57.48 244.984 57.48ZM278.153 57.48C273.609 57.48 270.025 56.376 267.401 54.168C264.777 51.96 263.385 48.712 263.225 44.424C263.193 43.528 263.177 42.152 263.177 40.296C263.177 38.44 263.193 37.048 263.225 36.12C263.353 31.896 264.745 28.648 267.401 26.376C270.089 24.072 273.673 22.92 278.153 22.92C282.601 22.92 286.153 24.072 288.809 26.376C291.497 28.648 292.905 31.896 293.033 36.12C293.097 37.976 293.129 39.368 293.129 40.296C293.129 41.256 293.097 42.632 293.033 44.424C292.873 48.712 291.481 51.96 288.857 54.168C286.265 56.376 282.697 57.48 278.153 57.48ZM278.153 50.28C279.817 50.28 281.145 49.784 282.137 48.792C283.129 47.768 283.657 46.216 283.721 44.136C283.785 42.28 283.817 40.952 283.817 40.152C283.817 39.352 283.785 38.056 283.721 36.264C283.657 34.184 283.129 32.648 282.137 31.656C281.145 30.632 279.817 30.12 278.153 30.12C276.457 30.12 275.113 30.632 274.121 31.656C273.129 32.648 272.601 34.184 272.537 36.264C272.505 37.16 272.489 38.456 272.489 40.152C272.489 41.88 272.505 43.208 272.537 44.136C272.601 46.216 273.129 47.768 274.121 48.792C275.113 49.784 276.457 50.28 278.153 50.28ZM312.465 57.48C307.889 57.48 304.289 56.376 301.665 54.168C299.073 51.96 297.697 48.728 297.537 44.472C297.505 43.608 297.489 42.2 297.489 40.248C297.489 38.264 297.505 36.824 297.537 35.928C297.697 31.768 299.089 28.568 301.713 26.328C304.369 24.056 307.953 22.92 312.465 22.92C315.313 22.92 317.857 23.384 320.097 24.312C322.369 25.24 324.161 26.584 325.473 28.344C326.785 30.104 327.473 32.184 327.537 34.584C327.537 34.872 327.425 35.112 327.201 35.304C327.009 35.496 326.769 35.592 326.481 35.592H319.665C319.217 35.592 318.881 35.512 318.657 35.352C318.465 35.16 318.289 34.824 318.129 34.344C317.681 32.776 316.993 31.688 316.065 31.08C315.169 30.44 313.969 30.12 312.465 30.12C308.849 30.12 306.977 32.136 306.849 36.168C306.817 37.032 306.801 38.36 306.801 40.152C306.801 41.944 306.817 43.304 306.849 44.232C306.977 48.264 308.849 50.28 312.465 50.28C313.937 50.28 315.137 49.96 316.065 49.32C317.025 48.68 317.713 47.592 318.129 46.056C318.257 45.576 318.433 45.256 318.657 45.096C318.881 44.904 319.217 44.808 319.665 44.808H326.481C326.769 44.808 327.009 44.904 327.201 45.096C327.425 45.288 327.537 45.528 327.537 45.816C327.473 48.216 326.785 50.296 325.473 52.056C324.161 53.816 322.369 55.16 320.097 56.088C317.857 57.016 315.313 57.48 312.465 57.48ZM346.356 57.48C341.78 57.48 338.18 56.376 335.556 54.168C332.964 51.96 331.588 48.728 331.428 44.472C331.396 43.608 331.38 42.2 331.38 40.248C331.38 38.264 331.396 36.824 331.428 35.928C331.588 31.768 332.98 28.568 335.604 26.328C338.26 24.056 341.844 22.92 346.356 22.92C349.204 22.92 351.748 23.384 353.988 24.312C356.26 25.24 358.052 26.584 359.364 28.344C360.676 30.104 361.364 32.184 361.428 34.584C361.428 34.872 361.316 35.112 361.092 35.304C360.9 35.496 360.66 35.592 360.372 35.592H353.556C353.108 35.592 352.772 35.512 352.548 35.352C352.356 35.16 352.18 34.824 352.02 34.344C351.572 32.776 350.884 31.688 349.956 31.08C349.06 30.44 347.86 30.12 346.356 30.12C342.74 30.12 340.868 32.136 340.74 36.168C340.708 37.032 340.692 38.36 340.692 40.152C340.692 41.944 340.708 43.304 340.74 44.232C340.868 48.264 342.74 50.28 346.356 50.28C347.828 50.28 349.028 49.96 349.956 49.32C350.916 48.68 351.604 47.592 352.02 46.056C352.148 45.576 352.324 45.256 352.548 45.096C352.772 44.904 353.108 44.808 353.556 44.808H360.372C360.66 44.808 360.9 44.904 361.092 45.096C361.316 45.288 361.428 45.528 361.428 45.816C361.364 48.216 360.676 50.296 359.364 52.056C358.052 53.816 356.26 55.16 353.988 56.088C351.748 57.016 349.204 57.48 346.356 57.48ZM367.527 57C367.207 57 366.919 56.888 366.663 56.664C366.439 56.408 366.327 56.12 366.327 55.8V24.648C366.327 24.296 366.439 24.008 366.663 23.784C366.887 23.528 367.175 23.4 367.527 23.4H390.182C390.535 23.4 390.823 23.528 391.047 23.784C391.303 24.008 391.431 24.296 391.431 24.648V29.4C391.431 29.752 391.303 30.04 391.047 30.264C390.823 30.488 390.535 30.6 390.182 30.6H375.015V36.696H389.127C389.479 36.696 389.767 36.824 389.991 37.08C390.247 37.304 390.375 37.592 390.375 37.944V42.312C390.375 42.664 390.247 42.968 389.991 43.224C389.767 43.448 389.479 43.56 389.127 43.56H375.015V49.8H390.567C390.919 49.8 391.207 49.928 391.431 50.184C391.687 50.408 391.815 50.696 391.815 51.048V55.8C391.815 56.152 391.687 56.44 391.431 56.664C391.207 56.888 390.919 57 390.567 57H367.527ZM398.323 57C398.003 57 397.715 56.888 397.459 56.664C397.235 56.408 397.123 56.12 397.123 55.8V24.648C397.123 24.296 397.235 24.008 397.459 23.784C397.683 23.528 397.971 23.4 398.323 23.4H411.523C415.747 23.4 419.043 24.36 421.411 26.28C423.811 28.2 425.011 30.904 425.011 34.392C425.011 36.632 424.483 38.536 423.427 40.104C422.403 41.672 420.979 42.888 419.155 43.752L425.635 55.464C425.731 55.656 425.779 55.832 425.779 55.992C425.779 56.248 425.683 56.488 425.491 56.712C425.299 56.904 425.059 57 424.771 57H418.003C417.075 57 416.419 56.568 416.035 55.704L410.755 45.288H406.147V55.8C406.147 56.152 406.019 56.44 405.763 56.664C405.539 56.888 405.251 57 404.899 57H398.323ZM411.475 38.232C412.851 38.232 413.891 37.896 414.595 37.224C415.331 36.52 415.699 35.56 415.699 34.344C415.699 33.128 415.331 32.152 414.595 31.416C413.891 30.68 412.851 30.312 411.475 30.312H406.147V38.232H411.475ZM443.218 57.48C440.114 57.48 437.474 57.032 435.298 56.136C433.122 55.24 431.474 54.056 430.354 52.584C429.234 51.112 428.642 49.512 428.578 47.784C428.578 47.496 428.674 47.256 428.866 47.064C429.09 46.872 429.346 46.776 429.634 46.776H436.018C436.402 46.776 436.706 46.84 436.93 46.968C437.186 47.096 437.458 47.32 437.746 47.64C438.162 48.408 438.802 49.048 439.666 49.56C440.562 50.04 441.746 50.28 443.218 50.28C444.946 50.28 446.274 50.024 447.202 49.512C448.13 48.968 448.594 48.232 448.594 47.304C448.594 46.632 448.354 46.088 447.874 45.672C447.394 45.224 446.626 44.84 445.57 44.52C444.514 44.168 442.994 43.784 441.01 43.368C437.138 42.6 434.242 41.432 432.322 39.864C430.402 38.296 429.442 36.056 429.442 33.144C429.442 31.16 429.986 29.4 431.074 27.864C432.194 26.296 433.762 25.08 435.778 24.216C437.826 23.352 440.194 22.92 442.882 22.92C445.698 22.92 448.13 23.416 450.178 24.408C452.258 25.368 453.842 26.584 454.93 28.056C456.05 29.496 456.642 30.92 456.706 32.328C456.706 32.616 456.61 32.872 456.418 33.096C456.226 33.288 455.986 33.384 455.698 33.384H448.978C448.274 33.384 447.73 33.096 447.346 32.52C447.154 31.848 446.658 31.288 445.858 30.84C445.058 30.36 444.066 30.12 442.882 30.12C441.538 30.12 440.498 30.36 439.762 30.84C439.026 31.32 438.658 32.024 438.658 32.952C438.658 33.88 439.138 34.616 440.098 35.16C441.058 35.672 442.85 36.2 445.474 36.744C448.482 37.288 450.866 37.976 452.626 38.808C454.418 39.608 455.73 40.664 456.562 41.976C457.426 43.256 457.858 44.888 457.858 46.872C457.858 49.048 457.234 50.936 455.986 52.536C454.738 54.136 453.01 55.368 450.802 56.232C448.594 57.064 446.066 57.48 443.218 57.48ZM463.667 57C463.347 57 463.059 56.888 462.803 56.664C462.579 56.408 462.467 56.12 462.467 55.8V24.6C462.467 24.248 462.579 23.96 462.803 23.736C463.059 23.512 463.347 23.4 463.667 23.4H470.531C470.883 23.4 471.171 23.512 471.395 23.736C471.619 23.96 471.731 24.248 471.731 24.6V55.8C471.731 56.12 471.619 56.408 471.395 56.664C471.171 56.888 470.883 57 470.531 57H463.667ZM479.512 57C479.16 57 478.856 56.888 478.6 56.664C478.376 56.44 478.264 56.152 478.264 55.8V24.648C478.264 24.296 478.376 24.008 478.6 23.784C478.856 23.528 479.16 23.4 479.512 23.4H484.936C485.736 23.4 486.312 23.752 486.664 24.456L494.92 39.24L503.224 24.456C503.576 23.752 504.152 23.4 504.952 23.4H510.376C510.728 23.4 511.016 23.528 511.24 23.784C511.496 24.008 511.624 24.296 511.624 24.648V55.8C511.624 56.152 511.496 56.44 511.24 56.664C511.016 56.888 510.728 57 510.376 57H504.28C503.96 57 503.672 56.888 503.416 56.664C503.192 56.408 503.08 56.12 503.08 55.8V38.328L497.896 47.832C497.48 48.568 496.92 48.936 496.216 48.936H493.624C492.984 48.936 492.424 48.568 491.944 47.832L486.808 38.328V55.8C486.808 56.152 486.68 56.44 486.424 56.664C486.2 56.888 485.912 57 485.56 57H479.512Z" fill="white"/>
</svg>
