<svg width="466" height="81" viewBox="0 0 466 81" fill="none" xmlns="http://www.w3.org/2000/svg">
<rect x="140" width="326" height="81" rx="6" fill="#25C050"/>
<path d="M5.28 57C4.96 57 4.704 56.904 4.512 56.712C4.32 56.488 4.224 56.216 4.224 55.896V24.552C4.224 24.2 4.32 23.928 4.512 23.736C4.704 23.512 4.96 23.4 5.28 23.4H16.992C20.64 23.4 23.488 24.264 25.536 25.992C27.616 27.688 28.656 30.168 28.656 33.432C28.656 35.864 28.048 37.864 26.832 39.432C25.616 41 23.92 42.088 21.744 42.696L29.136 55.512C29.232 55.704 29.28 55.88 29.28 56.04C29.28 56.296 29.184 56.52 28.992 56.712C28.8 56.904 28.576 57 28.32 57H26.208C25.728 57 25.344 56.888 25.056 56.664C24.8 56.44 24.56 56.12 24.336 55.704L17.28 43.416H8.736V55.896C8.736 56.216 8.624 56.488 8.4 56.712C8.176 56.904 7.904 57 7.584 57H5.28ZM16.8 39.48C21.632 39.48 24.048 37.448 24.048 33.384C24.048 29.32 21.632 27.288 16.8 27.288H8.736V39.48H16.8ZM47.5834 57.48C43.3274 57.48 40.0794 56.328 37.8394 54.024C35.6314 51.688 34.4474 48.504 34.2874 44.472C34.2554 43.608 34.2394 42.2 34.2394 40.248C34.2394 38.264 34.2554 36.824 34.2874 35.928C34.4474 31.896 35.6314 28.728 37.8394 26.424C40.0794 24.088 43.3274 22.92 47.5834 22.92C50.4314 22.92 52.8474 23.432 54.8314 24.456C56.8154 25.448 58.3034 26.76 59.2954 28.392C60.3194 30.024 60.8794 31.768 60.9754 33.624C60.9754 33.912 60.8634 34.152 60.6394 34.344C60.4474 34.504 60.2074 34.584 59.9194 34.584H57.5194C57.1994 34.584 56.9434 34.504 56.7514 34.344C56.5594 34.184 56.4154 33.912 56.3194 33.528C55.7754 31.064 54.7834 29.336 53.3434 28.344C51.9354 27.352 50.0154 26.856 47.5834 26.856C42.0154 26.856 39.1194 29.96 38.8954 36.168C38.8634 37.032 38.8474 38.36 38.8474 40.152C38.8474 41.944 38.8634 43.304 38.8954 44.232C39.1194 50.408 42.0154 53.496 47.5834 53.496C49.9834 53.496 51.9034 53 53.3434 52.008C54.7834 51.016 55.7754 49.304 56.3194 46.872C56.4154 46.488 56.5594 46.216 56.7514 46.056C56.9434 45.896 57.1994 45.816 57.5194 45.816H59.9194C60.2074 45.816 60.4474 45.912 60.6394 46.104C60.8634 46.264 60.9754 46.488 60.9754 46.776C60.8794 48.632 60.3194 50.376 59.2954 52.008C58.3034 53.64 56.8154 54.968 54.8314 55.992C52.8474 56.984 50.4314 57.48 47.5834 57.48ZM77.4413 57.48C73.9533 57.48 71.0573 56.632 68.7533 54.936C66.4813 53.208 65.2813 50.68 65.1533 47.352C65.1533 47.064 65.2493 46.824 65.4413 46.632C65.6333 46.408 65.8733 46.296 66.1613 46.296H68.6093C69.3133 46.296 69.7133 46.664 69.8093 47.4C70.0013 49.48 70.8013 51.016 72.2093 52.008C73.6173 53 75.3773 53.496 77.4893 53.496C79.9213 53.496 81.7933 52.696 83.1053 51.096C84.4493 49.496 85.1213 47.336 85.1213 44.616V27.432H67.9853C67.6653 27.432 67.3933 27.336 67.1693 27.144C66.9773 26.92 66.8813 26.648 66.8813 26.328V24.504C66.8813 24.184 66.9773 23.928 67.1693 23.736C67.3933 23.512 67.6653 23.4 67.9853 23.4H88.5773C88.9293 23.4 89.2013 23.512 89.3933 23.736C89.6173 23.928 89.7292 24.2 89.7292 24.552V44.712C89.7292 47.272 89.2333 49.512 88.2413 51.432C87.2813 53.352 85.8733 54.84 84.0173 55.896C82.1613 56.952 79.9693 57.48 77.4413 57.48ZM94.92 57C94.664 57 94.44 56.904 94.248 56.712C94.056 56.52 93.96 56.296 93.96 56.04L94.056 55.512L105.96 24.456C106.216 23.752 106.728 23.4 107.496 23.4H110.568C111.336 23.4 111.848 23.752 112.104 24.456L124.008 55.512L124.104 56.04C124.104 56.296 123.992 56.52 123.768 56.712C123.576 56.904 123.352 57 123.096 57H120.84C120.52 57 120.248 56.92 120.024 56.76C119.832 56.568 119.704 56.376 119.64 56.184L116.952 49.272H101.064L98.424 56.184C98.168 56.728 97.768 57 97.224 57H94.92ZM102.456 45.288H115.608L109.032 28.056L102.456 45.288Z" fill="white"/>
<path d="M175.984 57.48C172.88 57.48 170.24 57.032 168.064 56.136C165.888 55.24 164.24 54.056 163.12 52.584C162 51.112 161.408 49.512 161.344 47.784C161.344 47.496 161.44 47.256 161.632 47.064C161.856 46.872 162.112 46.776 162.4 46.776H168.784C169.168 46.776 169.472 46.84 169.696 46.968C169.952 47.096 170.224 47.32 170.512 47.64C170.928 48.408 171.568 49.048 172.432 49.56C173.328 50.04 174.512 50.28 175.984 50.28C177.712 50.28 179.04 50.024 179.968 49.512C180.896 48.968 181.36 48.232 181.36 47.304C181.36 46.632 181.12 46.088 180.64 45.672C180.16 45.224 179.392 44.84 178.336 44.52C177.28 44.168 175.76 43.784 173.776 43.368C169.904 42.6 167.008 41.432 165.088 39.864C163.168 38.296 162.208 36.056 162.208 33.144C162.208 31.16 162.752 29.4 163.84 27.864C164.96 26.296 166.528 25.08 168.544 24.216C170.592 23.352 172.96 22.92 175.648 22.92C178.464 22.92 180.896 23.416 182.944 24.408C185.024 25.368 186.608 26.584 187.696 28.056C188.816 29.496 189.408 30.92 189.472 32.328C189.472 32.616 189.376 32.872 189.184 33.096C188.992 33.288 188.752 33.384 188.464 33.384H181.744C181.04 33.384 180.496 33.096 180.112 32.52C179.92 31.848 179.424 31.288 178.624 30.84C177.824 30.36 176.832 30.12 175.648 30.12C174.304 30.12 173.264 30.36 172.528 30.84C171.792 31.32 171.424 32.024 171.424 32.952C171.424 33.88 171.904 34.616 172.864 35.16C173.824 35.672 175.616 36.2 178.24 36.744C181.248 37.288 183.632 37.976 185.392 38.808C187.184 39.608 188.496 40.664 189.328 41.976C190.192 43.256 190.624 44.888 190.624 46.872C190.624 49.048 190 50.936 188.752 52.536C187.504 54.136 185.776 55.368 183.568 56.232C181.36 57.064 178.832 57.48 175.984 57.48ZM209.153 57.48C204.609 57.48 201.025 56.376 198.401 54.168C195.777 51.96 194.385 48.712 194.225 44.424C194.193 43.528 194.177 42.152 194.177 40.296C194.177 38.44 194.193 37.048 194.225 36.12C194.353 31.896 195.745 28.648 198.401 26.376C201.089 24.072 204.673 22.92 209.153 22.92C213.601 22.92 217.153 24.072 219.809 26.376C222.497 28.648 223.905 31.896 224.033 36.12C224.097 37.976 224.129 39.368 224.129 40.296C224.129 41.256 224.097 42.632 224.033 44.424C223.873 48.712 222.481 51.96 219.857 54.168C217.265 56.376 213.697 57.48 209.153 57.48ZM209.153 50.28C210.817 50.28 212.145 49.784 213.137 48.792C214.129 47.768 214.657 46.216 214.721 44.136C214.785 42.28 214.817 40.952 214.817 40.152C214.817 39.352 214.785 38.056 214.721 36.264C214.657 34.184 214.129 32.648 213.137 31.656C212.145 30.632 210.817 30.12 209.153 30.12C207.457 30.12 206.113 30.632 205.121 31.656C204.129 32.648 203.601 34.184 203.537 36.264C203.505 37.16 203.489 38.456 203.489 40.152C203.489 41.88 203.505 43.208 203.537 44.136C203.601 46.216 204.129 47.768 205.121 48.792C206.113 49.784 207.457 50.28 209.153 50.28ZM243.465 57.48C238.889 57.48 235.289 56.376 232.665 54.168C230.073 51.96 228.697 48.728 228.537 44.472C228.505 43.608 228.489 42.2 228.489 40.248C228.489 38.264 228.505 36.824 228.537 35.928C228.697 31.768 230.089 28.568 232.713 26.328C235.369 24.056 238.953 22.92 243.465 22.92C246.313 22.92 248.857 23.384 251.097 24.312C253.369 25.24 255.161 26.584 256.473 28.344C257.785 30.104 258.473 32.184 258.537 34.584C258.537 34.872 258.425 35.112 258.201 35.304C258.009 35.496 257.769 35.592 257.481 35.592H250.665C250.217 35.592 249.881 35.512 249.657 35.352C249.465 35.16 249.289 34.824 249.129 34.344C248.681 32.776 247.993 31.688 247.065 31.08C246.169 30.44 244.969 30.12 243.465 30.12C239.849 30.12 237.977 32.136 237.849 36.168C237.817 37.032 237.801 38.36 237.801 40.152C237.801 41.944 237.817 43.304 237.849 44.232C237.977 48.264 239.849 50.28 243.465 50.28C244.937 50.28 246.137 49.96 247.065 49.32C248.025 48.68 248.713 47.592 249.129 46.056C249.257 45.576 249.433 45.256 249.657 45.096C249.881 44.904 250.217 44.808 250.665 44.808H257.481C257.769 44.808 258.009 44.904 258.201 45.096C258.425 45.288 258.537 45.528 258.537 45.816C258.473 48.216 257.785 50.296 256.473 52.056C255.161 53.816 253.369 55.16 251.097 56.088C248.857 57.016 246.313 57.48 243.465 57.48ZM277.356 57.48C272.78 57.48 269.18 56.376 266.556 54.168C263.964 51.96 262.588 48.728 262.428 44.472C262.396 43.608 262.38 42.2 262.38 40.248C262.38 38.264 262.396 36.824 262.428 35.928C262.588 31.768 263.98 28.568 266.604 26.328C269.26 24.056 272.844 22.92 277.356 22.92C280.204 22.92 282.748 23.384 284.988 24.312C287.26 25.24 289.052 26.584 290.364 28.344C291.676 30.104 292.364 32.184 292.428 34.584C292.428 34.872 292.316 35.112 292.092 35.304C291.9 35.496 291.66 35.592 291.372 35.592H284.556C284.108 35.592 283.772 35.512 283.548 35.352C283.356 35.16 283.18 34.824 283.02 34.344C282.572 32.776 281.884 31.688 280.956 31.08C280.06 30.44 278.86 30.12 277.356 30.12C273.74 30.12 271.868 32.136 271.74 36.168C271.708 37.032 271.692 38.36 271.692 40.152C271.692 41.944 271.708 43.304 271.74 44.232C271.868 48.264 273.74 50.28 277.356 50.28C278.828 50.28 280.028 49.96 280.956 49.32C281.916 48.68 282.604 47.592 283.02 46.056C283.148 45.576 283.324 45.256 283.548 45.096C283.772 44.904 284.108 44.808 284.556 44.808H291.372C291.66 44.808 291.9 44.904 292.092 45.096C292.316 45.288 292.428 45.528 292.428 45.816C292.364 48.216 291.676 50.296 290.364 52.056C289.052 53.816 287.26 55.16 284.988 56.088C282.748 57.016 280.204 57.48 277.356 57.48ZM298.527 57C298.207 57 297.919 56.888 297.663 56.664C297.439 56.408 297.327 56.12 297.327 55.8V24.648C297.327 24.296 297.439 24.008 297.663 23.784C297.887 23.528 298.175 23.4 298.527 23.4H321.182C321.535 23.4 321.823 23.528 322.047 23.784C322.303 24.008 322.431 24.296 322.431 24.648V29.4C322.431 29.752 322.303 30.04 322.047 30.264C321.823 30.488 321.535 30.6 321.182 30.6H306.015V36.696H320.127C320.479 36.696 320.767 36.824 320.991 37.08C321.247 37.304 321.375 37.592 321.375 37.944V42.312C321.375 42.664 321.247 42.968 320.991 43.224C320.767 43.448 320.479 43.56 320.127 43.56H306.015V49.8H321.567C321.919 49.8 322.207 49.928 322.431 50.184C322.687 50.408 322.815 50.696 322.815 51.048V55.8C322.815 56.152 322.687 56.44 322.431 56.664C322.207 56.888 321.919 57 321.567 57H298.527ZM329.323 57C329.003 57 328.715 56.888 328.459 56.664C328.235 56.408 328.123 56.12 328.123 55.8V24.648C328.123 24.296 328.235 24.008 328.459 23.784C328.683 23.528 328.971 23.4 329.323 23.4H342.523C346.747 23.4 350.043 24.36 352.411 26.28C354.811 28.2 356.011 30.904 356.011 34.392C356.011 36.632 355.483 38.536 354.427 40.104C353.403 41.672 351.979 42.888 350.155 43.752L356.635 55.464C356.731 55.656 356.779 55.832 356.779 55.992C356.779 56.248 356.683 56.488 356.491 56.712C356.299 56.904 356.059 57 355.771 57H349.003C348.075 57 347.419 56.568 347.035 55.704L341.755 45.288H337.147V55.8C337.147 56.152 337.019 56.44 336.763 56.664C336.539 56.888 336.251 57 335.899 57H329.323ZM342.475 38.232C343.851 38.232 344.891 37.896 345.595 37.224C346.331 36.52 346.699 35.56 346.699 34.344C346.699 33.128 346.331 32.152 345.595 31.416C344.891 30.68 343.851 30.312 342.475 30.312H337.147V38.232H342.475ZM374.218 57.48C371.114 57.48 368.474 57.032 366.298 56.136C364.122 55.24 362.474 54.056 361.354 52.584C360.234 51.112 359.642 49.512 359.578 47.784C359.578 47.496 359.674 47.256 359.866 47.064C360.09 46.872 360.346 46.776 360.634 46.776H367.018C367.402 46.776 367.706 46.84 367.93 46.968C368.186 47.096 368.458 47.32 368.746 47.64C369.162 48.408 369.802 49.048 370.666 49.56C371.562 50.04 372.746 50.28 374.218 50.28C375.946 50.28 377.274 50.024 378.202 49.512C379.13 48.968 379.594 48.232 379.594 47.304C379.594 46.632 379.354 46.088 378.874 45.672C378.394 45.224 377.626 44.84 376.57 44.52C375.514 44.168 373.994 43.784 372.01 43.368C368.138 42.6 365.242 41.432 363.322 39.864C361.402 38.296 360.442 36.056 360.442 33.144C360.442 31.16 360.986 29.4 362.074 27.864C363.194 26.296 364.762 25.08 366.778 24.216C368.826 23.352 371.194 22.92 373.882 22.92C376.698 22.92 379.13 23.416 381.178 24.408C383.258 25.368 384.842 26.584 385.93 28.056C387.05 29.496 387.642 30.92 387.706 32.328C387.706 32.616 387.61 32.872 387.418 33.096C387.226 33.288 386.986 33.384 386.698 33.384H379.978C379.274 33.384 378.73 33.096 378.346 32.52C378.154 31.848 377.658 31.288 376.858 30.84C376.058 30.36 375.066 30.12 373.882 30.12C372.538 30.12 371.498 30.36 370.762 30.84C370.026 31.32 369.658 32.024 369.658 32.952C369.658 33.88 370.138 34.616 371.098 35.16C372.058 35.672 373.85 36.2 376.474 36.744C379.482 37.288 381.866 37.976 383.626 38.808C385.418 39.608 386.73 40.664 387.562 41.976C388.426 43.256 388.858 44.888 388.858 46.872C388.858 49.048 388.234 50.936 386.986 52.536C385.738 54.136 384.01 55.368 381.802 56.232C379.594 57.064 377.066 57.48 374.218 57.48ZM394.667 57C394.347 57 394.059 56.888 393.803 56.664C393.579 56.408 393.467 56.12 393.467 55.8V24.6C393.467 24.248 393.579 23.96 393.803 23.736C394.059 23.512 394.347 23.4 394.667 23.4H401.531C401.883 23.4 402.171 23.512 402.395 23.736C402.619 23.96 402.731 24.248 402.731 24.6V55.8C402.731 56.12 402.619 56.408 402.395 56.664C402.171 56.888 401.883 57 401.531 57H394.667ZM410.512 57C410.16 57 409.856 56.888 409.6 56.664C409.376 56.44 409.264 56.152 409.264 55.8V24.648C409.264 24.296 409.376 24.008 409.6 23.784C409.856 23.528 410.16 23.4 410.512 23.4H415.936C416.736 23.4 417.312 23.752 417.664 24.456L425.92 39.24L434.224 24.456C434.576 23.752 435.152 23.4 435.952 23.4H441.376C441.728 23.4 442.016 23.528 442.24 23.784C442.496 24.008 442.624 24.296 442.624 24.648V55.8C442.624 56.152 442.496 56.44 442.24 56.664C442.016 56.888 441.728 57 441.376 57H435.28C434.96 57 434.672 56.888 434.416 56.664C434.192 56.408 434.08 56.12 434.08 55.8V38.328L428.896 47.832C428.48 48.568 427.92 48.936 427.216 48.936H424.624C423.984 48.936 423.424 48.568 422.944 47.832L417.808 38.328V55.8C417.808 56.152 417.68 56.44 417.424 56.664C417.2 56.888 416.912 57 416.56 57H410.512Z" fill="white"/>
</svg>
