<svg version="1.1" xmlns="http://www.w3.org/2000/svg" xmlns:xlink="http://www.w3.org/1999/xlink" width="359.09375" height="232" viewBox=" 368.5 90.75 359.09375 232"><defs><style type="text/css" xmlns="http://www.w3.org/1999/xhtml"><![CDATA[.blocklyText {cursor: default;fill: #fff;font-family: "Monaco", "Menlo", "Ubuntu Mono", "Consolas", "source-code-pro", monospace;font-size: 12pt;font-weight: 600;}.blocklyNonEditableText>rect:not(.blocklyDropdownRect),.blocklyEditableText>rect:not(.blocklyDropdownRect) {fill: #fff;}.blocklyNonEditableText>text,.blocklyEditableText>text,.blocklyNonEditableText>g>text,.blocklyEditableText>g>text {fill: #575E75;}.blocklyDraggable:not(.blocklyDisabled) .blocklyEditableText:not(.editing):hover>rect ,.blocklyDraggable:not(.blocklyDisabled) .blocklyEditableText:not(.editing):hover>.blocklyPath {stroke: #fff;stroke-width: 2;}.blocklyHtmlInput {font-family: "Monaco", "Menlo", "Ubuntu Mono", "Consolas", "source-code-pro", monospace;font-weight: 600;color: #575E75;}.blocklyDropdownText {fill: #fff !important;}.blocklyWidgetDiv .goog-menuitem,.blocklyDropDownDiv .goog-menuitem {font-family: "Monaco", "Menlo", "Ubuntu Mono", "Consolas", "source-code-pro", monospace;}.blocklyDropDownDiv .goog-menuitem-content {color: #fff;}.blocklyHighlightedConnectionPath {stroke: #fff200;}.blocklyDisabled > .blocklyOutlinePath {fill: url(#blocklyDisabledPattern5393562234375695)}.blocklyConnectionIndicator, .blocklyInputConnectionIndicator {fill: #ff0000;fill-opacity: 0.9;stroke: #ffff00;stroke-width: 3px;}.blocklyConnectionIndicator {display: none;}.blocklyBlockDragSurface > g > .blocklyDraggable > .blocklyConnectionIndicator {display: block;}.blocklyConnectionLine {stroke: #ffff00;stroke-width: 4px;}.blocklyConnectionLine.hidden {display: none;}]]></style></defs>"><g xmlns="http://www.w3.org/2000/svg" class="blocklyBlockCanvas"><g class="blocklyMarker"><g width="80" height="5"><rect fill="#4286f4" width="80" height="5" style="display: none"/><rect class="blocklyVerticalMarker" rx="10" ry="10" style="display: none" stroke="#4286f4"/><path transform="" style="display: none" fill="#4286f4"/><path transform="" style="display: none" fill="none" stroke="#4286f4" stroke-width="4"/><circle r="5" style="display: none" fill="#4286f4" stroke="#4286f4" stroke-width="4"/></g></g><g class="blocklyCursor"><g width="80" height="5"><rect fill="#ffa200" width="80" height="5" style="display: none"><animate attributeType="XML" attributeName="fill" dur="1s" values="#ffa200;transparent;transparent;" repeatCount="indefinite"/></rect><rect class="blocklyVerticalMarker" rx="10" ry="10" style="display: none" stroke="#ffa200"/><path transform="" style="display: none" fill="#ffa200"><animate attributeType="XML" attributeName="fill" dur="1s" values="#ffa200;transparent;transparent;" repeatCount="indefinite"/></path><path transform="" style="display: none" fill="none" stroke="#ffa200" stroke-width="4"><animate attributeType="XML" attributeName="stroke" dur="1s" values="#ffa200;transparent;transparent;" repeatCount="indefinite"/></path><circle r="5" style="display: none" fill="#ffa200" stroke="#ffa200" stroke-width="4"><animate attributeType="XML" attributeName="fill" dur="1s" values="#ffa200;transparent;transparent;" repeatCount="indefinite"/></circle></g></g><g data-id="Z-j9$lmIU)Krc?o,50yW" class="blocklyDraggable" transform="translate(368.5000000000001,90.74999999999986)"><path class="blocklyPath blocklyBlockBackground" stroke="#1f6d7c" fill="#2991a5" d=" m 0,0  m 0,4 a 4 4 0 0,1 4,-4  h 8  c 2,0  3,1  4,2  l 4,4  c 1,1  2,2  4,2  h 12  c 2,0  3,-1  4,-2  l 4,-4  c 1,-1  2,-2  4,-2  h 307.09375 a 4 4 0 0,1 4,4  v 8  V 40  V 44  V 44 a 4 4 0 0,1 -4,4  h -307.09375  c -2,0  -3,1  -4,2  l -4,4  c -1,1  -2,2  -4,2  h -12  c -2,0  -3,-1  -4,-2  l -4,-4  c -1,-1  -2,-2  -4,-2  h -8 a 4 4 0 0,1 -4,-4 z&#10;"/><g transform="translate(8,17.45)"><text class="blocklyText" y="6.55" dy="-0.45" x="0" dominant-baseline="central">Set the starting position to</text></g><g data-argument-type="dropdown" transform="translate(262.3125,8)"><rect rx="4" ry="4" x="0" y="0" height="32" width="88.78125" class="blocklyFieldRect blocklyDropdownRect" stroke="#1f6d7c" fill="transparent"/><text class="blocklyText blocklyDropdownText" y="16" dy="-0.45" x="8" dominant-baseline="central" text-anchor="start">centre</text><image style="display: none;"/><use height="12px" width="12px" xmlns:xlink="http://www.w3.org/1999/xlink" xlink:href="#blocklyDropdownArrowSvg" transform="translate(68.78125,10)"/></g><g data-id="MUd=+BW|E2d(t1uhHm?f" class="blocklyDraggable" transform="translate(0,48)"><path class="blocklyPath blocklyBlockBackground" stroke="#1f7c1f" fill="#29a529" d=" m 0,0  m 0,4 a 4 4 0 0,1 4,-4  h 8  c 2,0  3,1  4,2  l 4,4  c 1,1  2,2  4,2  h 12  c 2,0  3,-1  4,-2  l 4,-4  c 1,-1  2,-2  4,-2  h 108 a 4 4 0 0,1 4,4  v 8  V 40  V 44 a 4 4 0 0,1 -4,4  H 81.59375  c -2,0  -3,1  -4,2  l -4,4  c -1,1  -2,2  -4,2  h -12  c -2,0  -3,-1  -4,-2  l -4,-4  c -1,-1  -2,-2  -4,-2  h -8 a 4 4 0 0,0 -4,4  v 88 a 4 4 0 0,0 4,4  h 8  c 2,0  3,1  4,2  l 4,4  c 1,1  2,2  4,2  h 12  c 2,0  3,-1  4,-2  l 4,-4  c 1,-1  2,-2  4,-2  H 156 a 4 4 0 0,1 4,4  V 152  V 172 a 4 4 0 0,1 -4,4  h -108  c -2,0  -3,1  -4,2  l -4,4  c -1,1  -2,2  -4,2  h -12  c -2,0  -3,-1  -4,-2  l -4,-4  c -1,-1  -2,-2  -4,-2  h -8 a 4 4 0 0,1 -4,-4 z&#10;"/><g transform="translate(8,17.45)"><text class="blocklyText" y="6.55" dy="-0.45" x="0" dominant-baseline="central">repeat forever</text></g><g transform="translate(8,53.45)"><text class="blocklyText" y="6.55" dy="-0.45" x="0" dominant-baseline="central">do</text></g><g data-id="[W$4;g+nk[RuPUp)goPM" class="blocklyDraggable" transform="translate(33.59375,47.99999999999994)"><path class="blocklyPath blocklyBlockBackground" stroke="#1f2f7c" fill="#293ea5" d=" m 0,0  m 0,4 a 4 4 0 0,1 4,-4  h 8  c 2,0  3,1  4,2  l 4,4  c 1,1  2,2  4,2  h 12  c 2,0  3,-1  4,-2  l 4,-4  c 1,-1  2,-2  4,-2  h 229.9375 a 4 4 0 0,1 4,4  v 8  V 40  V 44  V 44 a 4 4 0 0,1 -4,4  h -229.9375  c -2,0  -3,1  -4,2  l -4,4  c -1,1  -2,2  -4,2  h -12  c -2,0  -3,-1  -4,-2  l -4,-4  c -1,-1  -2,-2  -4,-2  h -8 a 4 4 0 0,1 -4,-4 z&#10;"/><g data-id=";{Eha|/]P*];WggE*8{O" transform="translate(225.546875,8)"><path class="blocklyPath blocklyBlockBackground" stroke="#1f2f7c" fill="#fff" d=" m 16,0  h 16.390625 a 16 16 0 0 1 0,32  V 32  h -16.390625 a 16 16 0 0 1 0,-32 z&#10;"/><g data-argument-type="text number" class="blocklyEditableText" transform="translate(11,9.45)" style="cursor: text;"><text class="blocklyText" y="6.55" dy="-0.45" x="0" dominant-baseline="central">-50</text></g><g class="blocklyConnectionIndicator" transform="translate(0,16)"><circle r="9"/></g></g><g transform="translate(8,17.45)"><text class="blocklyText" y="6.55" dy="-0.45" x="0" dominant-baseline="central">Set</text></g><g transform="translate(42.390625,17.45)"><text class="blocklyText" y="6.55" dy="-0.45" x="0" dominant-baseline="central">Motor</text></g><g data-argument-type="dropdown" transform="translate(94.375,8)"><rect rx="4" ry="4" x="0" y="0" height="32" width="44.796875" class="blocklyFieldRect blocklyDropdownRect" stroke="#1f2f7c" fill="transparent"/><text class="blocklyText blocklyDropdownText" y="16" dy="-0.45" x="8" dominant-baseline="central" text-anchor="start">A</text><image style="display: none;"/><use height="12px" width="12px" xmlns:xlink="http://www.w3.org/1999/xlink" xlink:href="#blocklyDropdownArrowSvg" transform="translate(24.796875,10)"/></g><g transform="translate(147.171875,17.45)"><text class="blocklyText" y="6.55" dy="-0.45" x="0" dominant-baseline="central">speed to</text></g><g data-id="7t=8;z-@*mJHzA`Ol$3V" class="blocklyDraggable" transform="translate(0,48.00000000000003)"><path class="blocklyPath blocklyBlockBackground" stroke="#1f2f7c" fill="#293ea5" d=" m 0,0  m 0,4 a 4 4 0 0,1 4,-4  h 8  c 2,0  3,1  4,2  l 4,4  c 1,1  2,2  4,2  h 12  c 2,0  3,-1  4,-2  l 4,-4  c 1,-1  2,-2  4,-2  h 221.546875 a 4 4 0 0,1 4,4  v 8  V 40  V 44  V 44 a 4 4 0 0,1 -4,4  h -221.546875  c -2,0  -3,1  -4,2  l -4,4  c -1,1  -2,2  -4,2  h -12  c -2,0  -3,-1  -4,-2  l -4,-4  c -1,-1  -2,-2  -4,-2  h -8 a 4 4 0 0,1 -4,-4 z&#10;"/><g data-id="W_C^?Zh88^EG4X*uX}-:" transform="translate(225.546875,8)"><path class="blocklyPath blocklyBlockBackground" stroke="#1f2f7c" fill="#fff" d=" m 16,0  h 8 a 16 16 0 0 1 0,32  V 32  h -8 a 16 16 0 0 1 0,-32 z&#10;"/><g data-argument-type="text number" class="blocklyEditableText" transform="translate(11.203125,9.45)" style="cursor: text;"><text class="blocklyText" y="6.55" dy="-0.45" x="0" dominant-baseline="central">50</text></g><g class="blocklyConnectionIndicator" transform="translate(0,16)"><circle r="9"/></g></g><g transform="translate(8,17.45)"><text class="blocklyText" y="6.55" dy="-0.45" x="0" dominant-baseline="central">Set</text></g><g transform="translate(42.390625,17.45)"><text class="blocklyText" y="6.55" dy="-0.45" x="0" dominant-baseline="central">Motor</text></g><g data-argument-type="dropdown" transform="translate(94.375,8)"><rect rx="4" ry="4" x="0" y="0" height="32" width="44.796875" class="blocklyFieldRect blocklyDropdownRect" stroke="#1f2f7c" fill="transparent"/><text class="blocklyText blocklyDropdownText" y="16" dy="-0.45" x="8" dominant-baseline="central" text-anchor="start">B</text><image style="display: none;"/><use height="12px" width="12px" xmlns:xlink="http://www.w3.org/1999/xlink" xlink:href="#blocklyDropdownArrowSvg" transform="translate(24.796875,10)"/></g><g transform="translate(147.171875,17.45)"><text class="blocklyText" y="6.55" dy="-0.45" x="0" dominant-baseline="central">speed to</text></g></g></g></g></g></g></svg>